<svg xmlns="http://www.w3.org/2000/svg" viewBox="0 0 128 128" fill="none">
  <defs>
    <linearGradient id="b" x1="0" y1="0" x2="80" y2="80" gradientUnits="userSpaceOnUse">
      <stop offset="0" stop-color="#3D7BFF"/>
      <stop offset="1" stop-color="#0B3FE3"/>
    </linearGradient>
    <linearGradient id="f" x1="50" y1="50" x2="80" y2="80" gradientUnits="userSpaceOnUse">
      <stop offset="0" stop-color="#FFFFFF"/>
      <stop offset="0.55" stop-color="#E6EEFF"/>
      <stop offset="1" stop-color="#9DB9FF"/>
    </linearGradient>
  </defs>
  <g transform="translate(13.5 28) rotate(-12 40 40)">
    <rect width="80" height="80" rx="20" fill="url(#b)"/>
    <path d="M80 40C73 50 60 50 54 57C47 65 50 74 43 80H60A20 20 0 0 0 80 60Z" fill="url(#f)"/>
    <path d="M18.5 38A6.5 6.5 0 0 1 31.5 38M44.5 38A6.5 6.5 0 0 1 57.5 38" stroke="#fff" stroke-width="7" stroke-linecap="round"/>
    <path d="M88 6L95 -4M92 18L102 11" stroke="#2F6BFF" stroke-width="8" stroke-linecap="round"/>
  </g>
</svg>
